<?xml version="1.0" encoding="UTF-8"?><svg id="Layer_1" xmlns="http://www.w3.org/2000/svg" viewBox="0 0 250 250"><defs><style>.cls-1{fill:#ffef27;}.cls-2{fill:#fff;}.cls-3{fill:#123f00;}</style></defs><path class="cls-1" d="M116.17,154.7c-19.97,0-36.17,18.74-36.17,26.63,0,9.41,16.2,26.62,36.17,26.62s36.18-8.66,36.18-26.62-16.2-26.63-36.18-26.63ZM126.99,206.23c-4.72,0-8.57-11.02-8.57-24.61,0-4.13.36-8.02.98-11.44.66-3.58,1.61-6.64,2.77-8.9,1.37-2.7,3.03-4.28,4.82-4.28,4.73,0,8.58,11.03,8.58,24.62s-3.85,24.61-8.58,24.61Z"/><path class="cls-3" d="M148.39,121.81c29.49-3.93,52.29-19.65,52.29-53.86,0-31.05-17.95-49.41-55.77-53.16,8.42-5.52,21.62-7.75,21.62-7.75-17.16-2.94-58.66,6.24-61.98,6.99,14.99-3.47,18.15-14.03,18.15-14.03-6.12,10.49-87.56,14.08-87.56,14.08v235.92h50.67c-11.35-9.01-20.37-20.69-20.37-30.01,7.46,11.14,33,29.99,66.68,29.99,72.64,0,82.73-39.64,82.73-69.19,0-44.83-36.98-54.65-66.46-58.98ZM150.38,70.51c0,11.03-15.32,23.11-34.21,23.11s-34.21-7.53-34.21-23.11,15.32-23.11,34.21-23.11,34.21,15.97,34.21,23.11ZM116.17,207.94c-19.97,0-36.17-17.21-36.17-26.62,0-7.88,16.2-26.63,36.17-26.63s36.18,8.67,36.18,26.63-16.2,26.62-36.18,26.62Z"/><path class="cls-1" d="M116.17,47.4c-18.89,0-34.21,7.53-34.21,23.11s15.32,23.11,34.21,23.11,34.21-12.07,34.21-23.11c0-7.14-15.32-23.11-34.21-23.11ZM107.35,91.82c-4.74,0-8.58-9.54-8.58-21.31,0-2.02.11-3.97.32-5.82.52-4.56,1.63-8.5,3.12-11.26,1.43-2.66,3.21-4.24,5.14-4.24,4.74,0,8.58,9.54,8.58,21.32s-3.84,21.31-8.58,21.31Z"/><path class="cls-3" d="M115.93,70.51c0,11.77-3.84,21.31-8.58,21.31s-8.58-9.54-8.58-21.31,3.84-21.32,8.58-21.32,8.58,9.54,8.58,21.32Z"/><path class="cls-3" d="M135.57,181.61c0,13.6-3.85,24.61-8.58,24.61s-8.57-11.02-8.57-24.61,3.85-24.62,8.57-24.62,8.58,11.03,8.58,24.62Z"/><ellipse class="cls-2" cx="100.67" cy="59.06" rx="6.83" ry="5.13" transform="translate(-16.04 60.4) rotate(-31.06)"/><ellipse class="cls-2" cx="118.17" cy="165.56" rx="6.8" ry="4.77" transform="translate(-31.21 27.5) rotate(-11.74)"/></svg>